<svg width="28" height="28" viewBox="0 0 28 28" fill="none" xmlns="http://www.w3.org/2000/svg">
<path d="M6 10C6 7.87827 6.84285 5.84344 8.34315 4.34315C9.84344 2.84285 11.8783 2 14 2C16.1217 2 18.1566 2.84285 19.6569 4.34315C21.1571 5.84344 22 7.87827 22 10V14.697L24 17.697V22H18.389C18.1615 22.9937 17.6036 23.8808 16.8064 24.5162C16.0091 25.1515 15.0199 25.4975 14.0005 25.4975C12.9811 25.4975 11.9919 25.1515 11.1946 24.5162C10.3974 23.8808 9.83946 22.9937 9.612 22H4V17.697L6 14.697V10ZM11.708 22C11.9024 22.4462 12.2228 22.826 12.6299 23.0928C13.0371 23.3595 13.5133 23.5016 14 23.5016C14.4867 23.5016 14.9629 23.3595 15.3701 23.0928C15.7772 22.826 16.0976 22.4462 16.292 22H11.708ZM14 4C12.4087 4 10.8826 4.63214 9.75736 5.75736C8.63214 6.88258 8 8.4087 8 10V15.303L6 18.303V20H22V18.303L20 15.303V10C20 8.4087 19.3679 6.88258 18.2426 5.75736C17.1174 4.63214 15.5913 4 14 4Z" fill="#6E62FF"/>
</svg>
