<svg width="142" height="56" viewBox="0 0 142 56" fill="none" xmlns="http://www.w3.org/2000/svg">
<g clip-path="url(#clip0_279_22)">
<path d="M5.67969 41.6323L46.5757 48.4483V10.9603L19.3117 17.7763V34.8163L5.67969 41.6323ZM5.67969 41.6323V14.3683L46.5757 0.736328L60.2077 7.55233V48.4483L46.5757 55.2643" fill="#6E62FF"/>
</g>
<g clip-path="url(#clip1_279_22)">
<path d="M34.3124 21.5664C32.488 21.5666 30.6802 22.3507 30.8702 23.9176L31.336 27.3232C31.418 27.9226 31.8227 28.8807 32.4277 28.8807H32.4708L32.9661 34.8261C32.9876 35.083 33.1739 35.2919 33.4319 35.2919H35.2949C35.553 35.2919 35.7393 35.083 35.7607 34.8261L36.256 28.8807H36.2991C36.9039 28.8807 37.3089 27.9224 37.3909 27.3234L37.8566 23.9173C37.9784 22.3493 36.137 21.5659 34.3124 21.5664Z" fill="#6E62FF"/>
<path d="M34.3696 27.9277L34.3584 27.9571C34.3622 27.9482 34.3647 27.9391 34.3685 27.9303L34.3696 27.9277ZM30.6393 32.1543C27.3497 32.6191 25.0488 33.7311 25.0488 35.368C25.0488 37.5729 28.8932 39.3603 34.364 39.3603C39.8348 39.3603 43.6792 37.5729 43.6792 35.368C43.6792 33.7311 41.3786 32.6191 38.0892 32.1543L37.6334 32.9302C40.1127 33.2742 41.8162 33.9971 41.8162 34.8359C41.8162 36.0119 38.4797 36.9651 34.364 36.9651C30.2483 36.9651 26.9119 36.0119 26.9119 34.8359C26.9116 33.9998 28.604 33.2777 31.0909 32.9323L30.6393 32.1543Z" fill="#6E62FF"/>
<path d="M34.3642 20.9627C35.7147 20.9627 36.8094 19.868 36.8094 18.5175C36.8094 17.167 35.7147 16.0723 34.3642 16.0723C33.0137 16.0723 31.9189 17.167 31.9189 18.5175C31.9189 19.868 33.0137 20.9627 34.3642 20.9627Z" fill="#6E62FF"/>
</g>
<path d="M71.1953 33V23.0858H75.1067C75.8587 23.0858 76.4993 23.2294 77.0286 23.5167C77.5579 23.8007 77.9613 24.196 78.2388 24.7027C78.5196 25.2061 78.66 25.787 78.66 26.4454C78.66 27.1038 78.518 27.6847 78.234 28.1881C77.95 28.6916 77.5385 29.0837 76.9995 29.3645C76.4638 29.6452 75.8151 29.7856 75.0535 29.7856H72.5604V28.1058H74.7146C75.118 28.1058 75.4504 28.0365 75.7119 27.8977C75.9765 27.7557 76.1734 27.5604 76.3024 27.3119C76.4348 27.0602 76.5009 26.7714 76.5009 26.4454C76.5009 26.1162 76.4348 25.829 76.3024 25.5837C76.1734 25.3352 75.9765 25.1432 75.7119 25.0077C75.4472 24.8689 75.1116 24.7995 74.7049 24.7995H73.2914V33H71.1953ZM86.1452 23.0858H88.2413V29.5242C88.2413 30.2471 88.0687 30.8797 87.7234 31.4219C87.3813 31.964 86.902 32.3868 86.2856 32.6902C85.6692 32.9903 84.9511 33.1404 84.1314 33.1404C83.3084 33.1404 82.5888 32.9903 81.9724 32.6902C81.3559 32.3868 80.8767 31.964 80.5346 31.4219C80.1925 30.8797 80.0215 30.2471 80.0215 29.5242V23.0858H82.1176V29.3451C82.1176 29.7227 82.1999 30.0583 82.3645 30.352C82.5323 30.6457 82.7679 30.8765 83.0712 31.0443C83.3746 31.2121 83.728 31.296 84.1314 31.296C84.538 31.296 84.8914 31.2121 85.1916 31.0443C85.4949 30.8765 85.7289 30.6457 85.8935 30.352C86.0613 30.0583 86.1452 29.7227 86.1452 29.3451V23.0858ZM98.2584 23.0858V33H96.4479L92.1346 26.7601H92.062V33H89.9659V23.0858H91.8055L96.0848 29.3209H96.172V23.0858H98.2584ZM108.738 26.5568H106.617C106.579 26.2824 106.5 26.0388 106.38 25.8258C106.261 25.6095 106.108 25.4256 105.92 25.2739C105.733 25.1222 105.517 25.006 105.272 24.9254C105.03 24.8447 104.767 24.8043 104.483 24.8043C103.969 24.8043 103.522 24.9318 103.142 25.1868C102.761 25.4385 102.466 25.8064 102.256 26.2905C102.046 26.7714 101.941 27.3555 101.941 28.0429C101.941 28.7497 102.046 29.3435 102.256 29.8244C102.469 30.3052 102.766 30.6683 103.146 30.9136C103.527 31.1588 103.968 31.2815 104.468 31.2815C104.749 31.2815 105.009 31.2444 105.247 31.1701C105.489 31.0959 105.704 30.9878 105.891 30.8458C106.078 30.7006 106.233 30.5247 106.356 30.3181C106.482 30.1116 106.569 29.876 106.617 29.6114L108.738 29.621C108.683 30.0761 108.546 30.515 108.326 30.9378C108.11 31.3573 107.818 31.7333 107.45 32.0657C107.085 32.3949 106.65 32.6563 106.143 32.8499C105.64 33.0403 105.07 33.1355 104.434 33.1355C103.55 33.1355 102.759 32.9355 102.062 32.5353C101.368 32.1351 100.82 31.5558 100.416 30.7974C100.016 30.039 99.8159 29.1208 99.8159 28.0429C99.8159 26.9618 100.019 26.042 100.426 25.2836C100.833 24.5252 101.384 23.9475 102.081 23.5505C102.779 23.1504 103.563 22.9503 104.434 22.9503C105.009 22.9503 105.541 23.031 106.032 23.1923C106.525 23.3537 106.963 23.5893 107.344 23.8991C107.724 24.2057 108.034 24.5817 108.273 25.027C108.515 25.4724 108.67 25.9823 108.738 26.5568ZM110.241 33V23.0858H112.337V27.1764H116.592V23.0858H118.683V33H116.592V28.9046H112.337V33H110.241ZM122.508 23.0858V33H120.412V23.0858H122.508ZM132.525 23.0858V33H130.714L126.401 26.7601H126.328V33H124.232V23.0858H126.072L130.351 29.3209H130.438V23.0858H132.525Z" fill="#6E62FF"/>
<defs>
<clipPath id="clip0_279_22">
<rect width="54.528" height="54.528" fill="white" transform="translate(5.67969 0.736328)"/>
</clipPath>
<clipPath id="clip1_279_22">
<rect width="23.288" height="23.288" fill="white" transform="translate(22.7197 16.0723)"/>
</clipPath>
</defs>
</svg>
